<svg xmlns="http://www.w3.org/2000/svg" viewBox="0 0 920 200" font-family="system-ui, -apple-system, Segoe UI, sans-serif" font-size="12">
  <defs>
    <marker id="arrow" markerWidth="8" markerHeight="8" refX="7" refY="4" orient="auto">
      <path d="M0,0 L8,4 L0,8 z" fill="#475569"/>
    </marker>
    <marker id="arrow-bi" markerWidth="8" markerHeight="8" refX="4" refY="4" orient="auto">
      <path d="M0,0 L8,4 L0,8 z" fill="#64748b"/>
    </marker>
  </defs>
  <rect width="100%" height="100%" fill="#f8fafc"/>
  <text x="16" y="24" fill="#64748b" font-size="11">01 · sû€þ / Relationship sketch</text>
  <g id="nodes">
    <rect x="40" y="70" width="88" height="44" rx="8" fill="#dbeafe" stroke="#2563eb" stroke-width="1.5"/>
    <text x="84" y="96" text-anchor="middle" fill="#1e3a8a" font-weight="600">` / You</text>
    <rect x="180" y="50" width="88" height="36" rx="6" fill="#fff" stroke="#94a3b8"/>
    <text x="224" y="72" text-anchor="middle" fill="#334155">§Á</text>
    <rect x="180" y="98" width="88" height="36" rx="6" fill="#fff" stroke="#94a3b8"/>
    <text x="224" y="120" text-anchor="middle" fill="#334155">¶„</text>
    <rect x="180" y="146" width="88" height="36" rx="6" fill="#fff" stroke="#94a3b8"/>
    <text x="224" y="168" text-anchor="middle" fill="#334155">KÕÏ</text>
    <rect x="360" y="80" width="100" height="48" rx="8" fill="#fef3c7" stroke="#d97706" stroke-width="1.5"/>
    <text x="410" y="104" text-anchor="middle" fill="#92400e" font-weight="600">¤Ø</text>
    <text x="410" y="118" text-anchor="middle" fill="#92400e" font-size="10">Delivery</text>
    <rect x="540" y="82" width="120" height="44" rx="8" fill="#dcfce7" stroke="#16a34a" stroke-width="1.5"/>
    <text x="600" y="108" text-anchor="middle" fill="#14532d" font-weight="600">ž°KÕ</text>
    <rect x="720" y="82" width="160" height="44" rx="8" fill="#f1f5f9" stroke="#64748b"/>
    <text x="800" y="108" text-anchor="middle" fill="#475569">Impl &amp; test</text>
  </g>
  <g stroke="#64748b" stroke-width="1.2" fill="none" marker-end="url(#arrow)">
    <path d="M128 92 L180 68"/>
    <path d="M128 92 L180 116"/>
    <path d="M128 108 L180 164"/>
    <path d="M268 68 L360 96"/>
    <path d="M268 116 L360 104"/>
    <path d="M268 164 L360 112"/>
    <path d="M460 104 L540 104"/>
    <path d="M660 104 L720 104"/>
  </g>
  <text x="300" y="38" fill="#64748b" font-size="10">òš? PRD / ¶„ ’ ¤ØKÕ‡c ” ¤Ø</text>
</svg>
